<?xml version="1.0" encoding="UTF-8" standalone="no"?><svg width="82" height="49" viewBox="0 0 82 49" fill="none" xmlns="http://www.w3.org/2000/svg">
<path d="M53.0998 6.61961L44.8235 0V4.96293H36.5543V0L28.2852 6.61961L36.5543 13.2321V8.26918H44.8235V13.2321L53.0998 6.61961Z" fill="#122821"/>
<path d="M15.5642 23.6948C20.1743 23.6948 23.9116 19.9575 23.9116 15.3474C23.9116 10.7373 20.1743 7 15.5642 7C10.954 7 7.2168 10.7373 7.2168 15.3474C7.2168 19.9575 10.954 23.6948 15.5642 23.6948Z" fill="#122821"/>
<path d="M0 49C0 36.4718 6.96802 26.3184 15.5643 26.3184C24.1605 26.3184 31.1214 36.4718 31.1214 49" fill="#122821"/>
<path d="M65.8123 23.6948C70.4224 23.6948 74.1596 19.9575 74.1596 15.3474C74.1596 10.7373 70.4224 7 65.8123 7C61.2021 7 57.4648 10.7373 57.4648 15.3474C57.4648 19.9575 61.2021 23.6948 65.8123 23.6948Z" fill="#122821"/>
<path d="M50.2549 49C50.2549 36.4718 57.2158 26.3184 65.812 26.3184C74.4083 26.3184 81.3763 36.4718 81.3763 49" fill="#122821"/>
<path d="M18.5295 39.7496L15.5646 42.5937L12.5996 39.7496L14.7327 28.5297H16.3965L18.5295 39.7496Z" fill="#E6F9E0"/>
<path d="M10.7012 25.0529L15.5646 29.9162L20.4279 25.0529H10.7012Z" fill="#E6F9E0"/>
<path d="M68.7763 39.7496L65.8114 42.5937L62.8535 39.7496L64.9866 28.5297H66.6433L68.7763 39.7496Z" fill="#E6F9E0"/>
<path d="M60.9482 25.0529L65.8116 29.9162L70.6821 25.0529H60.9482Z" fill="#E6F9E0"/>
</svg>
