<?xml version="1.0" encoding="UTF-8" standalone="no"?><svg width="72" height="40" viewBox="0 0 72 40" fill="none" xmlns="http://www.w3.org/2000/svg">
<g clip-path="url(#clip0_905_31133)">
<path d="M71.9944 14.2262C72.0019 14.1706 72.0019 14.1144 71.9944 14.0588C72.0015 14.0135 72.0015 13.9673 71.9944 13.9219L71.461 10.0117C71.3841 9.54389 71.1783 9.10665 70.8668 8.74888L70.7753 8.64237L70.6078 8.475L61.374 0.5329L61.633 0.791571C61.4211 0.538393 61.1551 0.335885 60.8545 0.198963C60.5539 0.0620404 60.2263 -0.0058167 59.896 0.000397418H57.0923C56.6364 -0.00862213 56.1909 0.136114 55.8276 0.411202C55.4461 0.137771 54.9868 -0.00622479 54.5172 0.000397418H51.7135C51.3458 -0.00555964 50.9831 0.0855647 50.662 0.264571C50.3409 0.443577 50.0729 0.704109 49.8851 1.01978C49.5955 1.47065 49.4867 2.01388 49.5803 2.54126L49.9308 5.00604C49.6986 4.87462 49.4358 4.80643 49.1689 4.80827H35.5925C35.1054 4.81132 34.6295 4.95388 34.2211 5.21905C33.8262 5.46587 33.5092 5.81929 33.3069 6.23843L32.2555 5.34077C31.8417 4.95846 31.2955 4.75124 30.7318 4.76262H9.43008C8.94125 4.77151 8.46328 4.90787 8.04353 5.1582C7.46927 5.49382 7.04842 6.03953 6.87023 6.67967L0.10488 29.2736C-0.0215282 29.6459 -0.0339633 30.0474 0.0691674 30.4268C0.172298 30.8061 0.386324 31.1463 0.683903 31.4037C0.761443 31.4693 0.84286 31.5303 0.927705 31.5862C0.927705 31.5862 0.790548 31.4949 0.714361 31.4189L9.94819 39.3762C10.3388 39.7353 10.8495 39.936 11.3804 39.9391H32.8498C33.3401 39.9264 33.8184 39.7847 34.2364 39.5283C34.4728 39.3993 34.6843 39.2293 34.8611 39.0262L34.9373 38.9197L35.0592 38.7676L35.1506 38.6002L36.1563 39.4675C36.5413 39.8123 37.0409 40.002 37.5581 40H59.0731C59.5629 39.9837 60.0403 39.8423 60.4597 39.5892C60.6908 39.4523 60.9011 39.2832 61.0845 39.0871L61.1606 38.9806L61.2825 38.8285C61.3473 38.7322 61.4035 38.6304 61.4501 38.5241C61.4999 38.4319 61.5407 38.3351 61.572 38.2351L67.7431 17.6039V17.4213C67.7507 17.3505 67.7507 17.2791 67.7431 17.2083V17.0714C67.7505 17.026 67.7505 16.9798 67.7431 16.9344C67.75 16.8382 67.75 16.7416 67.7431 16.6453H69.724C69.8963 16.6611 70.0697 16.6611 70.242 16.6453H70.3792C70.4907 16.6121 70.5981 16.5661 70.6992 16.5084H70.8516L71.1258 16.2954L71.2477 16.2041L71.461 15.9302V15.839L71.6134 15.5803C71.6049 15.53 71.6049 15.4785 71.6134 15.4282C71.6053 15.4035 71.6053 15.3768 71.6134 15.3521C71.6458 15.2629 71.6713 15.1713 71.6896 15.0782C71.6825 15.0482 71.6825 15.0169 71.6896 14.9869C71.6822 14.9416 71.6822 14.8953 71.6896 14.85C71.6896 14.85 71.9944 14.2566 71.9944 14.2262Z" fill="#122821"/>
<path d="M31.3567 6.49713C31.4376 6.57017 31.4941 6.66621 31.5186 6.77231C31.5432 6.87841 31.5345 6.98946 31.4939 7.0905L24.7438 29.6692C24.6588 29.9157 24.4849 30.1218 24.2562 30.2474C24.0701 30.3717 23.8547 30.4451 23.6314 30.4604H2.17736C1.99414 30.4516 1.82056 30.3758 1.68976 30.2474C1.61195 30.1755 1.55734 30.0821 1.53291 29.9792C1.50848 29.8762 1.51536 29.7683 1.55263 29.6692L8.31798 7.0905C8.39593 6.84088 8.56436 6.62928 8.79033 6.49713C8.9795 6.38175 9.19387 6.31388 9.41506 6.29933H30.8691C31.0509 6.30108 31.2252 6.3718 31.3567 6.49713ZM20.1573 25.12L24.1952 11.6397H12.8892L8.8665 25.12H20.1573ZM51.8356 6.72534C51.9088 6.81028 52.0003 6.87764 52.1032 6.92242C52.2061 6.9672 52.3177 6.98825 52.4299 6.98399H55.2183C55.3245 6.98503 55.4291 6.95903 55.5225 6.90845C55.6158 6.85787 55.6946 6.78437 55.7516 6.69491C55.8011 6.62503 55.8361 6.54592 55.8544 6.46228C55.8727 6.37865 55.874 6.2922 55.8582 6.20805L55.3097 2.19135C55.2575 2.00545 55.1637 1.83379 55.0355 1.68926C54.9622 1.60432 54.8708 1.53696 54.7679 1.49218C54.665 1.4474 54.5533 1.42636 54.4412 1.43061H51.6528C51.5466 1.42958 51.4419 1.45558 51.3486 1.50616C51.2553 1.55674 51.1764 1.63023 51.1195 1.7197C51.0128 1.9327 50.9671 2.06963 51.0128 2.19135L51.5766 6.20805C51.6055 6.40363 51.6963 6.58486 51.8356 6.72534ZM60.6885 2.16092C60.6362 1.97501 60.5424 1.80335 60.4142 1.65883C60.3441 1.5742 60.2553 1.50686 60.1549 1.462C60.0545 1.41715 59.9451 1.39599 59.8352 1.40018H57.0315C56.9271 1.39721 56.8238 1.42251 56.7326 1.4734C56.6414 1.52429 56.5657 1.59889 56.5135 1.68926C56.4121 1.82424 56.3682 1.99379 56.3916 2.16092L56.9553 6.17761C56.9907 6.37113 57.0805 6.55057 57.2144 6.69491C57.2889 6.77819 57.3806 6.84442 57.4832 6.88906C57.5858 6.9337 57.6967 6.9557 57.8086 6.95355H60.6123C60.7165 6.95493 60.8191 6.92896 60.91 6.87822C61.001 6.82748 61.077 6.75379 61.1304 6.66449C61.1834 6.59642 61.2204 6.51734 61.2389 6.4331C61.2574 6.34886 61.2567 6.26157 61.237 6.17761L60.6885 2.16092ZM49.3824 8.24682L49.1081 6.2689H35.5927C35.3805 6.28058 35.1752 6.34889 34.9984 6.46669C34.8862 6.5278 34.7885 6.6125 34.7122 6.71494C34.636 6.81739 34.5829 6.93513 34.5566 7.06007L33.429 10.8333C33.384 10.9276 33.3686 11.0334 33.3849 11.1366C33.4013 11.2398 33.4485 11.3356 33.5204 11.4115C33.6489 11.5321 33.8166 11.6024 33.9928 11.6093H50.4186L46.3807 25.0896H30.0006C29.7894 25.0944 29.5837 25.1576 29.4064 25.2721C29.1909 25.4088 29.0335 25.6201 28.9645 25.8655L27.8217 29.6388C27.7844 29.7356 27.7746 29.8408 27.7934 29.9428C27.8123 30.0449 27.8589 30.1397 27.9283 30.2169C28.0528 30.3456 28.2218 30.4218 28.4007 30.4299H49.9157C50.1382 30.4108 50.3527 30.3377 50.5404 30.2169C50.7654 30.0907 50.9342 29.8842 51.0128 29.6388L57.1991 9.00756H50.2357C50.1252 9.00973 50.0155 8.98925 49.9133 8.94738C49.8111 8.90551 49.7186 8.84312 49.6415 8.76411C49.5155 8.62614 49.4264 8.4587 49.3824 8.27725V8.24682Z" fill="white"/>
</g>
<defs>
<clipPath id="clip0_905_31133">
<rect width="72" height="40" fill="white"/>
</clipPath>
</defs>
</svg>
