<?xml version="1.0" encoding="UTF-8" standalone="no"?><svg width="42" height="38" viewBox="0 0 42 38" fill="none" xmlns="http://www.w3.org/2000/svg">
<g clip-path="url(#clip0_905_31151)">
<path d="M5.74692 28.7259C7.28709 29.8002 9.7842 29.8002 11.3244 28.7259C12.8645 27.6516 12.8645 25.9098 11.3244 24.8355C9.7842 23.7612 7.28709 23.7612 5.74692 24.8355C4.20675 25.9098 4.20675 27.6516 5.74692 28.7259Z" fill="#122821"/>
<path d="M21.7327 14.1371C24.043 15.7485 27.7885 15.7485 30.0988 14.1371C32.409 12.5256 32.409 9.91303 30.0988 8.3016C27.7885 6.69016 24.043 6.69016 21.7327 8.3016C19.4225 9.91303 19.4225 12.5256 21.7327 14.1371Z" fill="#122821"/>
<path d="M13.2466 21.4314C15.1718 22.7742 18.2932 22.7742 20.2184 21.4314C22.1436 20.0885 22.1436 17.9113 20.2184 16.5684C18.2932 15.2256 15.1718 15.2256 13.2466 16.5684C11.3214 17.9113 11.3214 20.0885 13.2466 21.4314Z" fill="#122821"/>
<path d="M0.866345 20.4588C2.02147 21.2645 3.8943 21.2645 5.04943 20.4588C6.20455 19.6531 6.20455 18.3468 5.04943 17.541C3.8943 16.7353 2.02147 16.7353 0.866345 17.541C-0.288782 18.3468 -0.288781 19.6531 0.866345 20.4588Z" fill="#122821"/>
<path d="M13.2466 5.87008C15.1718 7.21294 18.2932 7.21294 20.2184 5.87008C22.1436 4.52722 22.1436 2.35001 20.2184 1.00715C18.2932 -0.335716 15.1718 -0.335717 13.2466 1.00715C11.3214 2.35001 11.3214 4.52722 13.2466 5.87008Z" fill="#122821"/>
<path d="M5.74692 13.1646C7.28709 14.2389 9.7842 14.2389 11.3244 13.1646C12.8645 12.0903 12.8645 10.3485 11.3244 9.27422C9.7842 8.19993 7.28709 8.19993 5.74692 9.27422C4.20675 10.3485 4.20676 12.0903 5.74692 13.1646Z" fill="#122821"/>
<path d="M13.2466 36.9929C15.1718 38.3357 18.2932 38.3357 20.2184 36.9929C22.1436 35.65 22.1436 33.4728 20.2184 32.1299C18.2932 30.7871 15.1718 30.7871 13.2466 32.1299C11.3214 33.4728 11.3214 35.65 13.2466 36.9929Z" fill="#122821"/>
<path d="M31.9006 21.9179C34.2109 23.5293 37.9566 23.5293 40.2668 21.9179C42.5771 20.3065 42.5771 17.6938 40.2668 16.0824C37.9566 14.4709 34.2109 14.4709 31.9006 16.0824C29.5904 17.6938 29.5904 20.3065 31.9006 21.9179Z" fill="#122821"/>
<path d="M21.7327 29.6983C24.043 31.3098 27.7885 31.3098 30.0988 29.6983C32.409 28.0869 32.409 25.4743 30.0988 23.8628C27.7885 22.2514 24.043 22.2514 21.7327 23.8628C19.4225 25.4743 19.4225 28.0869 21.7327 29.6983Z" fill="#122821"/>
</g>
<defs>
<clipPath id="clip0_905_31151">
<rect width="42" height="38" fill="white"/>
</clipPath>
</defs>
</svg>
