<?xml version="1.0" encoding="UTF-8" standalone="no"?><svg width="39" height="39" viewBox="0 0 39 39" fill="none" xmlns="http://www.w3.org/2000/svg">
<path d="M39 13.0444C39.0001 10.4168 38.2093 7.85036 36.7312 5.68131C35.253 3.51226 33.1563 1.84172 30.7159 0.88852C28.2755 -0.0646937 25.605 -0.256126 23.0543 0.339281C20.5035 0.934688 18.1916 2.28918 16.421 4.22534H0V39H34.6711V22.7481C36.0318 21.5269 37.1208 20.0314 37.8667 18.3594C38.6126 16.6873 38.9988 14.8764 39 13.0444ZM32.3289 13.0444C32.3316 14.3035 31.9618 15.5352 31.2666 16.5834C30.5712 17.6315 29.5817 18.4493 28.423 18.9329C27.2643 19.4166 25.9888 19.5445 24.7576 19.3004C23.5266 19.0565 22.3953 18.4514 21.507 17.562C20.6187 16.6725 20.0134 15.5387 19.7676 14.3039C19.5218 13.0692 19.6467 11.789 20.1263 10.6255C20.6059 9.46195 21.4188 8.46734 22.462 7.76753C23.5053 7.06772 24.732 6.69417 25.9868 6.69416C27.6666 6.69416 29.2778 7.36278 30.4667 8.55331C31.6558 9.74383 32.3255 11.359 32.3289 13.0444ZM28 32.3065H6.67106V10.9189H13.171C13.0455 11.6206 12.9795 12.3316 12.9737 13.0444C12.9772 16.5063 14.3493 19.8254 16.7891 22.2733C19.2287 24.7211 22.5366 26.098 25.9868 26.1014C26.6614 26.0979 27.3346 26.0404 28 25.9298V32.3065Z" fill="#122821"/>
</svg>
