<?xml version="1.0" encoding="UTF-8" standalone="no"?><svg width="57" height="51" viewBox="0 0 57 51" fill="none" xmlns="http://www.w3.org/2000/svg">
<path d="M15.5561 25.6955C20.1661 25.6955 23.9033 21.9584 23.9033 17.3484C23.9033 12.7384 20.1661 9.00122 15.5561 9.00122C10.9461 9.00122 7.20898 12.7384 7.20898 17.3484C7.20898 21.9584 10.9461 25.6955 15.5561 25.6955Z" fill="#122821"/>
<path d="M0 51C0 38.4722 6.96771 28.3191 15.5566 28.3191C24.1455 28.3191 31.1204 38.4722 31.1204 51" fill="#122821"/>
<path d="M35.8979 9.954C38.6466 9.954 40.8749 7.72572 40.8749 4.977C40.8749 2.22828 38.6466 0 35.8979 0C33.1492 0 30.9209 2.22828 30.9209 4.977C30.9209 7.72572 33.1492 9.954 35.8979 9.954Z" fill="#122821"/>
<path d="M26.6201 25.0485C26.6201 17.583 30.7795 11.5396 35.9058 11.5396C41.0321 11.5396 45.1488 17.5973 45.1488 25.0485" fill="#122821"/>
<path d="M47.5727 9.954C50.3214 9.954 52.5497 7.72572 52.5497 4.977C52.5497 2.22828 50.3214 0 47.5727 0C44.824 0 42.5957 2.22828 42.5957 4.977C42.5957 7.72572 44.824 9.954 47.5727 9.954Z" fill="#122821"/>
<path d="M38.2939 25.0485C38.2939 17.583 42.4462 11.5396 47.5369 11.5396C52.6277 11.5396 56.8226 17.5973 56.8226 25.0485" fill="#122821"/>
</svg>
