<?xml version="1.0" encoding="UTF-8" standalone="no"?><svg width="296" height="396" viewBox="0 0 296 396" fill="none" xmlns="http://www.w3.org/2000/svg">
<rect width="296" height="395.379" fill="#E6F9E0"/>
<mask id="mask0_905_31118" style="mask-type:alpha" maskUnits="userSpaceOnUse" x="0" y="0" width="296" height="396">
<rect width="296" height="395.379" fill="#E6F9E0"/>
</mask>
<g mask="url(#mask0_905_31118)">
<path d="M97.2422 115.297V111.612C100.072 111.463 102.008 110.83 103.051 109.714C104.093 108.523 104.652 106.922 104.726 104.912C104.875 102.828 104.95 100.483 104.95 97.8772V49.6378C104.95 48.149 104.987 46.7345 105.061 45.3946C105.136 43.9801 105.21 42.7146 105.285 41.5979C103.944 41.6724 102.604 41.7468 101.264 41.8213C99.9231 41.8957 98.5826 41.9702 97.2422 42.0446V37.1313C101.412 37.0569 105.62 36.9824 109.865 36.908C114.184 36.8336 118.503 36.8708 122.822 37.0197C130.046 37.0941 135.855 37.9502 140.248 39.588C144.716 41.1513 147.993 43.4218 150.078 46.3995C152.163 49.3028 153.206 52.8389 153.206 57.0077C153.28 59.911 152.722 62.8888 151.53 65.9409C150.413 68.9187 148.328 71.5986 145.275 73.9808C142.296 76.363 137.977 78.1497 132.317 79.3408C133.807 80.383 135.11 81.723 136.227 83.3607C137.344 84.9985 138.61 86.8968 140.025 89.0556L147.621 101.004C148.887 103.014 150.115 104.838 151.307 106.475C152.498 108.039 153.876 109.304 155.44 110.272C157.004 111.165 158.94 111.612 161.249 111.612V115.297H147.174C145.014 113.361 143.19 111.426 141.7 109.49C140.285 107.555 138.796 105.359 137.232 102.902L129.748 90.9539C128.78 89.3906 127.663 87.604 126.397 85.594C125.205 83.5096 123.828 81.7602 122.264 80.3458C121.072 80.4202 119.806 80.4574 118.466 80.4574C117.2 80.4574 115.934 80.4202 114.668 80.3458V102.009C114.668 104.019 114.631 105.768 114.556 107.257C114.556 108.671 114.482 109.863 114.333 110.83C115.227 110.756 116.12 110.719 117.014 110.719C117.907 110.644 118.801 110.57 119.695 110.495C120.588 110.421 121.482 110.384 122.376 110.384V115.297H97.2422ZM121.594 76.2141C125.689 76.0653 129.264 75.3953 132.317 74.2042C135.445 73.0131 137.902 71.1148 139.69 68.5093C141.477 65.9037 142.371 62.4793 142.371 58.236C142.371 55.4072 141.961 52.9506 141.142 50.8661C140.397 48.7073 139.206 46.9206 137.567 45.5062C135.929 44.0918 133.844 43.0496 131.312 42.3796C128.78 41.6352 125.801 41.2629 122.376 41.2629C119.62 41.2629 117.684 41.8213 116.567 42.9379C115.524 44.0546 114.929 45.6179 114.78 47.6279C114.705 49.5634 114.668 51.8711 114.668 54.5511V75.9908C115.86 76.0653 116.977 76.1397 118.019 76.2141C119.136 76.2886 120.328 76.2886 121.594 76.2141Z" fill="#122821"/>
<path d="M192.424 117.084C187.286 117.084 182.632 115.893 178.461 113.51C174.366 111.054 171.126 107.629 168.743 103.237C166.36 98.7705 165.169 93.5223 165.169 87.4923C165.169 82.2813 166.323 77.4052 168.631 72.8642C171.014 68.3231 174.328 64.6754 178.573 61.921C182.818 59.0922 187.733 57.6777 193.318 57.6777C196.446 57.6777 199.35 58.1988 202.031 59.241C204.786 60.2088 207.207 61.7349 209.292 63.8193C211.377 65.8293 213.015 68.3976 214.207 71.5242C215.398 74.5764 215.994 78.1869 215.994 82.3557L176.674 83.0257C176.674 88.6834 177.27 93.6711 178.461 97.9889C179.727 102.232 181.738 105.545 184.493 107.927C187.249 110.235 190.786 111.389 195.105 111.389C197.414 111.389 199.76 110.979 202.143 110.16C204.6 109.341 206.871 108.225 208.957 106.81C211.042 105.396 212.717 103.833 213.983 102.12L216.664 104.354C214.653 107.48 212.233 109.974 209.403 111.835C206.574 113.696 203.669 115.036 200.69 115.855C197.712 116.674 194.956 117.084 192.424 117.084ZM177.009 78.3358H205.494C205.494 75.6558 205.084 73.0875 204.265 70.6309C203.52 68.0998 202.254 66.0526 200.467 64.4893C198.68 62.8515 196.334 62.0327 193.43 62.0327C189.111 62.0327 185.499 63.3354 182.594 65.9409C179.765 68.472 177.903 72.6036 177.009 78.3358Z" fill="#122821"/>
<path d="M225.935 115.297V111.947C228.243 111.947 229.844 111.389 230.738 110.272C231.632 109.081 232.153 107.48 232.302 105.47C232.451 103.386 232.525 101.004 232.525 98.3238V72.8642C232.525 71.6731 232.525 70.482 232.525 69.2909C232.6 68.0998 232.749 66.8715 232.972 65.606C231.632 65.6804 230.291 65.7548 228.951 65.8293C227.685 65.9037 226.382 65.9782 225.041 66.0526V61.3627C228.318 61.3627 230.775 61.2138 232.414 60.916C234.126 60.6182 235.392 60.246 236.211 59.7994C237.031 59.3527 237.701 58.8688 238.222 58.3477H241.462C241.611 59.0921 241.685 59.9482 241.685 60.916C241.759 61.8838 241.834 63.0004 241.908 64.266C244.142 62.3304 246.712 60.7671 249.616 59.576C252.52 58.3105 255.425 57.6777 258.329 57.6777C262.052 57.6777 265.18 58.3477 267.712 59.6877C270.244 61.0277 272.217 62.8515 273.632 65.1593C276.164 63.0749 279.069 61.3255 282.345 59.911C285.696 58.4222 288.973 57.6777 292.175 57.6777C298.654 57.6777 303.42 59.6505 306.473 63.596C309.526 67.467 310.979 73.832 310.83 82.6907L310.718 103.46C310.718 104.949 310.681 106.289 310.606 107.48C310.606 108.597 310.495 109.788 310.271 111.054C311.463 110.979 312.617 110.942 313.734 110.942C314.926 110.868 316.117 110.793 317.309 110.719V115.297H294.521V111.947C296.829 111.947 298.431 111.389 299.324 110.272C300.218 109.081 300.739 107.48 300.888 105.47C301.037 103.386 301.111 101.004 301.111 98.3238V82.6907C301.111 76.2886 300.069 71.487 297.984 68.2859C295.973 65.0849 292.771 63.5215 288.377 63.596C286.069 63.596 283.76 64.1171 281.452 65.1593C279.143 66.2015 277.132 67.5043 275.42 69.0676C275.792 70.2587 276.053 71.5614 276.201 72.9759C276.425 74.3158 276.537 75.7303 276.537 77.2191C276.462 81.5369 276.425 85.8918 276.425 90.284C276.425 94.6761 276.388 99.0683 276.313 103.46C276.313 104.949 276.276 106.289 276.201 107.48C276.201 108.597 276.09 109.788 275.866 111.054C277.058 110.979 278.212 110.942 279.329 110.942C280.521 110.868 281.712 110.793 282.904 110.719V115.297H260.116V111.947C262.425 111.947 263.989 111.389 264.808 110.272C265.701 109.081 266.223 107.48 266.372 105.47C266.595 103.386 266.707 101.004 266.707 98.3238L266.818 82.6907C266.893 76.2886 265.962 71.4498 264.026 68.1743C262.09 64.8987 258.925 63.2982 254.531 63.3726C252.222 63.3726 249.951 63.8937 247.717 64.936C245.483 65.9037 243.584 67.1693 242.02 68.7326C242.02 69.6259 242.02 70.5937 242.02 71.6359C242.095 72.6036 242.132 73.6458 242.132 74.7625V103.46C242.132 104.949 242.095 106.289 242.02 107.48C242.02 108.597 241.908 109.788 241.685 111.054C242.876 110.979 244.031 110.942 245.148 110.942C246.339 110.868 247.531 110.793 248.722 110.719V115.297H225.935Z" fill="#122821"/>
<path d="M359.706 115.297C359.483 114.031 359.334 112.915 359.259 111.947C359.185 110.979 359.073 109.974 358.924 108.932C356.392 111.463 353.637 113.473 350.658 114.962C347.754 116.376 344.663 117.084 341.387 117.084C335.727 117.084 331.52 115.818 328.764 113.287C326.009 110.681 324.631 107.518 324.631 103.795C324.631 100.371 325.674 97.4305 327.759 94.9739C329.919 92.4428 332.674 90.3956 336.025 88.8323C339.451 87.1946 343.137 86.0035 347.084 85.259C351.105 84.4401 354.977 84.0679 358.701 84.1424V77.2191C358.701 74.6136 358.478 72.157 358.031 69.8492C357.584 67.5415 356.616 65.6432 355.126 64.1543C353.637 62.6654 351.254 61.8838 347.977 61.8093C345.818 61.7349 343.584 62.1443 341.275 63.0377C339.041 63.931 337.403 65.4571 336.36 67.6159C336.956 68.2115 337.328 68.9187 337.477 69.7376C337.701 70.482 337.812 71.1892 337.812 71.8592C337.812 72.7525 337.44 73.7947 336.695 74.9858C335.951 76.1025 334.647 76.6236 332.786 76.5491C331.222 76.5491 330.03 76.028 329.211 74.9858C328.392 73.8692 327.982 72.5664 327.982 71.0775C327.982 68.5465 328.913 66.2759 330.775 64.266C332.711 62.256 335.355 60.6555 338.706 59.4644C342.057 58.2733 345.855 57.6777 350.1 57.6777C356.355 57.6777 360.972 59.3527 363.951 62.7027C366.93 65.9782 368.382 71.1892 368.307 78.3358C368.307 81.0902 368.307 83.8818 368.307 86.7107C368.307 89.4651 368.27 92.2567 368.196 95.0856C368.196 97.84 368.196 100.632 368.196 103.46C368.196 104.652 368.159 105.843 368.084 107.034C368.01 108.225 367.898 109.565 367.749 111.054C369.089 110.979 370.393 110.905 371.659 110.83C372.999 110.756 374.339 110.681 375.68 110.607V115.297H359.706ZM358.701 87.939C356.169 88.0134 353.488 88.3484 350.658 88.944C347.903 89.4651 345.334 90.284 342.951 91.4006C340.642 92.5173 338.743 94.0061 337.254 95.8672C335.839 97.6539 335.169 99.8499 335.243 102.455C335.392 105.21 336.286 107.294 337.924 108.709C339.637 110.049 341.647 110.719 343.956 110.719C347.009 110.719 349.653 110.16 351.887 109.044C354.196 107.853 356.467 106.215 358.701 104.13C358.626 103.312 358.589 102.418 358.589 101.45C358.589 100.483 358.589 99.4777 358.589 98.4355C358.589 98.0633 358.589 96.8722 358.589 94.8622C358.664 92.8523 358.701 90.5445 358.701 87.939Z" fill="#122821"/>
<path d="M383.346 111.947C385.654 111.947 387.255 111.389 388.149 110.272C389.043 109.081 389.564 107.48 389.713 105.47C389.862 103.386 389.936 101.004 389.936 98.3238V72.8642C389.936 71.6731 389.936 70.482 389.936 69.2909C390.011 68.0998 390.16 66.8715 390.383 65.606C389.043 65.6804 387.702 65.7548 386.362 65.8293C385.096 65.8293 383.792 65.8665 382.452 65.9409V61.3627H385.915C389.117 61.3627 391.314 61.0649 392.505 60.4694C393.771 59.7994 394.814 59.0921 395.633 58.3477H398.872C399.021 59.5388 399.133 61.0277 399.208 62.8143C399.282 64.5265 399.357 66.7226 399.431 69.4026C400.548 67.5415 402.075 65.7176 404.011 63.931C405.947 62.1443 408.107 60.6555 410.49 59.4644C412.947 58.2733 415.516 57.6777 418.197 57.6777C420.282 57.6777 422.107 58.236 423.671 59.3527C425.235 60.4694 426.017 62.256 426.017 64.7126C426.017 65.3082 425.83 66.0526 425.458 66.9459C425.086 67.7648 424.49 68.5092 423.671 69.1792C422.852 69.7748 421.772 70.0726 420.431 70.0726C418.793 69.9981 417.49 69.3653 416.522 68.1743C415.554 66.9087 415.181 65.4571 415.405 63.8193C413.543 63.7449 411.607 64.2287 409.596 65.271C407.66 66.3132 405.835 67.7648 404.123 69.6259C402.41 71.4125 400.883 73.5342 399.543 75.9908L399.654 103.46C399.654 104.949 399.617 106.289 399.543 107.48C399.543 108.597 399.431 109.788 399.208 111.054C400.399 110.979 401.553 110.942 402.67 110.942C403.862 110.868 405.053 110.793 406.245 110.719V115.297H383.346V111.947Z" fill="#122821"/>
<path d="M430.229 115.297V111.947C432.538 111.947 434.101 111.389 434.921 110.272C435.814 109.081 436.335 107.48 436.484 105.47C436.633 103.386 436.708 101.004 436.708 98.3238L436.819 45.5062C436.819 44.3151 436.819 43.1985 436.819 42.1563C436.894 41.0396 437.006 39.7369 437.155 38.248C435.814 38.3224 434.474 38.3969 433.133 38.4713C431.867 38.5458 430.564 38.6202 429.224 38.6946V34.0047C432.5 34.0047 435.032 33.8558 436.819 33.558C438.607 33.2603 439.947 32.8881 440.841 32.4414C441.809 31.9947 442.554 31.5109 443.075 30.9897H446.314V83.8074H450.782L464.41 69.5142C465.676 68.2487 466.831 67.132 467.873 66.1643C468.916 65.1221 469.958 64.266 471.001 63.596L463.405 63.931V59.4644H483.735V62.8143C481.203 63.0377 478.82 63.8565 476.586 65.271C474.427 66.6109 472.416 68.137 470.554 69.8492C468.767 71.5614 467.203 73.1247 465.863 74.5392L457.15 83.6957C458.639 84.3657 459.905 85.2218 460.948 86.264C461.99 87.3062 463.033 88.4601 464.075 89.7256L472.006 99.8872C472.379 100.334 473.012 101.19 473.905 102.455C474.873 103.721 475.99 105.098 477.256 106.587C478.597 108.076 479.974 109.341 481.389 110.384C482.879 111.426 484.256 111.947 485.522 111.947V115.297H475.357C473.272 115.297 471.299 114.218 469.437 112.059C467.575 109.9 465.602 107.48 463.517 104.8C461.581 102.12 459.831 99.7011 458.267 97.5422C456.777 95.3089 455.4 93.3734 454.134 91.7356C452.942 90.0978 451.862 88.8323 450.894 87.939L446.314 88.1623V103.46C446.314 104.949 446.277 106.289 446.203 107.48C446.203 108.597 446.091 109.788 445.868 111.054C447.059 110.979 448.251 110.942 449.442 110.942C450.634 110.868 451.825 110.793 453.017 110.719V115.297H430.229Z" fill="#122821"/>
<path d="M525.19 115.297C524.966 114.031 524.817 112.915 524.743 111.947C524.668 110.979 524.557 109.974 524.408 108.932C521.876 111.463 519.12 113.473 516.142 114.962C513.237 116.376 510.147 117.084 506.87 117.084C501.21 117.084 497.003 115.818 494.248 113.287C491.492 110.681 490.115 107.518 490.115 103.795C490.115 100.371 491.157 97.4305 493.242 94.9739C495.402 92.4428 498.157 90.3956 501.508 88.8323C504.934 87.1946 508.62 86.0035 512.567 85.259C516.588 84.4401 520.461 84.0679 524.184 84.1424V77.2191C524.184 74.6136 523.961 72.157 523.514 69.8492C523.067 67.5415 522.099 65.6432 520.61 64.1543C519.12 62.6654 516.737 61.8838 513.461 61.8093C511.301 61.7349 509.067 62.1443 506.758 63.0377C504.524 63.931 502.886 65.4571 501.843 67.6159C502.439 68.2115 502.811 68.9187 502.96 69.7376C503.184 70.482 503.296 71.1892 503.296 71.8592C503.296 72.7525 502.923 73.7947 502.178 74.9858C501.434 76.1025 500.131 76.6236 498.269 76.5491C496.705 76.5491 495.514 76.028 494.694 74.9858C493.875 73.8692 493.466 72.5664 493.466 71.0775C493.466 68.5465 494.396 66.2759 496.258 64.266C498.194 62.256 500.838 60.6555 504.189 59.4644C507.54 58.2733 511.338 57.6777 515.583 57.6777C521.838 57.6777 526.456 59.3527 529.434 62.7027C532.413 65.9782 533.865 71.1892 533.791 78.3358C533.791 81.0902 533.791 83.8818 533.791 86.7107C533.791 89.4651 533.754 92.2567 533.679 95.0856C533.679 97.84 533.679 100.632 533.679 103.46C533.679 104.652 533.642 105.843 533.567 107.034C533.493 108.225 533.381 109.565 533.232 111.054C534.573 110.979 535.876 110.905 537.142 110.83C538.482 110.756 539.823 110.681 541.163 110.607V115.297H525.19ZM524.184 87.939C521.652 88.0134 518.971 88.3484 516.142 88.944C513.386 89.4651 510.817 90.284 508.434 91.4006C506.125 92.5173 504.226 94.0061 502.737 95.8672C501.322 97.6539 500.652 99.8499 500.726 102.455C500.875 105.21 501.769 107.294 503.407 108.709C505.12 110.049 507.131 110.719 509.439 110.719C512.493 110.719 515.136 110.16 517.37 109.044C519.679 107.853 521.95 106.215 524.184 104.13C524.11 103.312 524.072 102.418 524.072 101.45C524.072 100.483 524.072 99.4777 524.072 98.4355C524.072 98.0633 524.072 96.8722 524.072 94.8622C524.147 92.8523 524.184 90.5445 524.184 87.939Z" fill="#122821"/>
<path d="M552.403 45.5062C552.403 44.3151 552.403 43.1985 552.403 42.1563C552.478 41.0396 552.59 39.7369 552.739 38.248C551.398 38.3224 550.058 38.3969 548.717 38.4713C547.451 38.5458 546.148 38.6202 544.808 38.6946V34.0047C548.084 34.0047 550.616 33.8558 552.403 33.558C554.265 33.2603 555.643 32.8881 556.536 32.4414C557.505 31.9947 558.249 31.5109 558.771 30.9897H562.01V64.266C564.095 62.1816 566.553 60.581 569.382 59.4644C572.287 58.2733 575.452 57.6777 578.877 57.6777C583.643 57.6777 587.925 58.8316 591.723 61.1393C595.596 63.4471 598.649 66.7226 600.883 70.9659C603.117 75.2092 604.234 80.2341 604.234 86.0407C604.234 92.3684 602.856 97.8772 600.101 102.567C597.346 107.183 593.771 110.756 589.377 113.287C584.984 115.818 580.255 117.084 575.191 117.084C572.659 117.084 569.866 116.6 566.813 115.632C563.834 114.739 561.154 112.952 558.771 110.272L556.09 115.297H552.18L552.403 45.5062ZM562.01 97.7655C562.01 101.711 562.643 104.763 563.909 106.922C565.175 109.006 566.813 110.458 568.824 111.277C570.835 112.096 572.957 112.505 575.191 112.505C578.766 112.505 581.856 111.5 584.462 109.49C587.069 107.48 589.08 104.726 590.494 101.227C591.984 97.6539 592.729 93.5223 592.729 88.8323C592.729 83.7702 592.096 79.3408 590.83 75.5442C589.564 71.6731 587.665 68.6581 585.133 66.4993C582.601 64.266 579.398 63.1493 575.526 63.1493C573.069 63.1493 570.611 63.7449 568.154 64.936C565.771 66.0526 563.723 67.5787 562.01 69.5142V97.7655Z" fill="#122821"/>
<path d="M612.727 111.947C615.036 111.947 616.637 111.389 617.53 110.272C618.424 109.081 618.945 107.48 619.094 105.47C619.243 103.386 619.318 101.004 619.318 98.3238V45.5062C619.318 44.3151 619.318 43.1985 619.318 42.1563C619.392 41.0396 619.504 39.7369 619.653 38.248C618.312 38.3224 616.972 38.3969 615.631 38.4713C614.365 38.5458 613.062 38.6202 611.722 38.6946V34.0047C614.998 34.0047 617.53 33.8558 619.318 33.558C621.179 33.2603 622.557 32.8881 623.451 32.4414C624.419 31.9947 625.163 31.5109 625.685 30.9897H628.924L629.036 103.46C629.036 104.949 628.999 106.289 628.924 107.48C628.85 108.597 628.701 109.788 628.477 111.054C629.669 110.979 630.823 110.942 631.94 110.942C633.132 110.868 634.323 110.793 635.515 110.719V115.297H612.727V111.947Z" fill="#122821"/>
<path d="M671.311 117.084C666.173 117.084 661.519 115.893 657.348 113.51C653.253 111.054 650.013 107.629 647.63 103.237C645.247 98.7705 644.056 93.5223 644.056 87.4923C644.056 82.2813 645.21 77.4052 647.518 72.8642C649.901 68.3231 653.215 64.6754 657.46 61.921C661.705 59.0922 666.62 57.6777 672.205 57.6777C675.333 57.6777 678.237 58.1988 680.918 59.241C683.673 60.2088 686.094 61.7349 688.179 63.8193C690.264 65.8293 691.902 68.3976 693.094 71.5242C694.285 74.5764 694.881 78.1869 694.881 82.3557L655.561 83.0257C655.561 88.6834 656.157 93.6711 657.348 97.9889C658.614 102.232 660.625 105.545 663.38 107.927C666.136 110.235 669.673 111.389 673.992 111.389C676.301 111.389 678.647 110.979 681.03 110.16C683.487 109.341 685.758 108.225 687.844 106.81C689.929 105.396 691.604 103.833 692.87 102.12L695.551 104.354C693.54 107.48 691.12 109.974 688.29 111.835C685.461 113.696 682.556 115.036 679.577 115.855C676.599 116.674 673.843 117.084 671.311 117.084ZM655.896 78.3358H684.381C684.381 75.6558 683.971 73.0875 683.152 70.6309C682.407 68.0998 681.141 66.0526 679.354 64.4893C677.567 62.8515 675.221 62.0327 672.317 62.0327C667.997 62.0327 664.386 63.3354 661.481 65.9409C658.652 68.472 656.79 72.6036 655.896 78.3358Z" fill="#122821"/>
<path d="M-150.671 238.791V235.106C-147.841 234.957 -145.905 234.324 -144.862 233.208C-143.82 232.017 -143.261 230.416 -143.187 228.406C-143.038 226.322 -142.963 223.977 -142.963 221.371V173.132C-142.963 171.643 -142.926 170.229 -142.852 168.889C-142.777 167.474 -142.703 166.209 -142.628 165.092C-143.969 165.167 -145.309 165.241 -146.65 165.315C-147.99 165.39 -149.33 165.464 -150.671 165.539V160.625C-146.501 160.551 -142.293 160.477 -138.048 160.402C-133.729 160.328 -129.41 160.365 -125.091 160.514C-117.867 160.588 -112.059 161.444 -107.665 163.082C-103.197 164.645 -99.9201 166.916 -97.8349 169.894C-95.7498 172.797 -94.7072 176.333 -94.7072 180.502C-94.6328 183.405 -95.1913 186.383 -96.3828 189.435C-97.4998 192.413 -99.585 195.093 -102.638 197.475C-105.617 199.857 -109.936 201.644 -115.596 202.835C-114.106 203.877 -112.803 205.217 -111.686 206.855C-110.569 208.493 -109.303 210.391 -107.888 212.55L-100.292 224.498C-99.0264 226.508 -97.7977 228.332 -96.6062 229.97C-95.4147 231.533 -94.037 232.798 -92.4731 233.766C-90.9093 234.659 -88.9731 235.106 -86.6645 235.106V238.791H-100.739C-102.899 236.856 -104.723 234.92 -106.213 232.985C-107.628 231.049 -109.117 228.853 -110.681 226.396L-118.165 214.448C-119.133 212.885 -120.25 211.098 -121.516 209.088C-122.708 207.004 -124.085 205.254 -125.649 203.84C-126.841 203.914 -128.107 203.952 -129.447 203.952C-130.713 203.952 -131.979 203.914 -133.245 203.84V225.503C-133.245 227.513 -133.282 229.262 -133.357 230.751C-133.357 232.166 -133.431 233.357 -133.58 234.324C-132.687 234.25 -131.793 234.213 -130.899 234.213C-130.006 234.138 -129.112 234.064 -128.218 233.989C-127.325 233.915 -126.431 233.878 -125.538 233.878V238.791H-150.671ZM-126.319 199.708C-122.224 199.559 -118.649 198.889 -115.596 197.698C-112.468 196.507 -110.011 194.609 -108.223 192.003C-106.436 189.398 -105.543 185.973 -105.543 181.73C-105.543 178.901 -105.952 176.445 -106.771 174.36C-107.516 172.201 -108.707 170.415 -110.346 169C-111.984 167.586 -114.069 166.544 -116.601 165.874C-119.133 165.129 -122.112 164.757 -125.538 164.757C-128.293 164.757 -130.229 165.315 -131.346 166.432C-132.389 167.549 -132.984 169.112 -133.133 171.122C-133.208 173.058 -133.245 175.365 -133.245 178.045V199.485C-132.054 199.559 -130.937 199.634 -129.894 199.708C-128.777 199.783 -127.585 199.783 -126.319 199.708Z" fill="#122821"/>
<path d="M-55.4887 240.578C-60.6271 240.578 -65.2814 239.387 -69.4517 237.004C-73.5475 234.548 -76.7869 231.123 -79.1699 226.731C-81.5529 222.265 -82.7444 217.016 -82.7444 210.986C-82.7444 205.775 -81.5902 200.899 -79.2816 196.358C-76.8986 191.817 -73.5847 188.17 -69.34 185.415C-65.0952 182.586 -60.1802 181.172 -54.595 181.172C-51.4673 181.172 -48.563 181.693 -45.8821 182.735C-43.1268 183.703 -40.7065 185.229 -38.6214 187.313C-36.5362 189.323 -34.8979 191.892 -33.7064 195.018C-32.5149 198.071 -31.9192 201.681 -31.9192 205.85L-71.2389 206.52C-71.2389 212.178 -70.6432 217.165 -69.4517 221.483C-68.1857 225.726 -66.175 229.039 -63.4197 231.421C-60.6643 233.729 -57.127 234.883 -52.8078 234.883C-50.4992 234.883 -48.1535 234.473 -45.7704 233.655C-43.313 232.836 -41.0416 231.719 -38.9565 230.305C-36.8714 228.89 -35.1958 227.327 -33.9298 225.615L-31.2489 227.848C-33.2596 230.975 -35.6798 233.468 -38.5097 235.329C-41.3395 237.191 -44.2438 238.531 -47.2226 239.349C-50.2014 240.168 -52.9567 240.578 -55.4887 240.578ZM-70.9038 201.83H-42.4193C-42.4193 199.15 -42.8289 196.582 -43.6481 194.125C-44.3928 191.594 -45.6587 189.547 -47.446 187.983C-49.2333 186.346 -51.579 185.527 -54.4833 185.527C-58.8026 185.527 -62.4143 186.83 -65.3186 189.435C-68.1485 191.966 -70.0102 196.098 -70.9038 201.83Z" fill="#122821"/>
<path d="M-21.9784 238.791V235.441C-19.6698 235.441 -18.0687 234.883 -17.1751 233.766C-16.2815 232.575 -15.7602 230.975 -15.6113 228.965C-15.4623 226.88 -15.3878 224.498 -15.3878 221.818V196.358C-15.3878 195.167 -15.3878 193.976 -15.3878 192.785C-15.3134 191.594 -15.1644 190.366 -14.941 189.1C-16.2815 189.175 -17.6219 189.249 -18.9624 189.323C-20.2283 189.398 -21.5316 189.472 -22.872 189.547V184.857C-19.5954 184.857 -17.1379 184.708 -15.4995 184.41C-13.7868 184.112 -12.5208 183.74 -11.7016 183.294C-10.8824 182.847 -10.2122 182.363 -9.69093 181.842H-6.45152C-6.30258 182.586 -6.22813 183.442 -6.22813 184.41C-6.15366 185.378 -6.07919 186.495 -6.00471 187.76C-3.77065 185.825 -1.20145 184.261 1.70287 183.07C4.60716 181.805 7.51146 181.172 10.4158 181.172C14.1392 181.172 17.2669 181.842 19.7989 183.182C22.3309 184.522 24.3043 186.346 25.7192 188.653C28.2512 186.569 31.1555 184.82 34.4321 183.405C37.7832 181.916 41.0599 181.172 44.2621 181.172C50.7409 181.172 55.5069 183.145 58.5602 187.09C61.6134 190.961 63.0656 197.326 62.9166 206.185L62.8049 226.955C62.8049 228.443 62.7677 229.783 62.6932 230.975C62.6932 232.091 62.5815 233.282 62.3581 234.548C63.5496 234.473 64.7039 234.436 65.8209 234.436C67.0124 234.362 68.2039 234.287 69.3954 234.213V238.791H46.6078V235.441C48.9164 235.441 50.5175 234.883 51.4111 233.766C52.3047 232.575 52.826 230.975 52.975 228.965C53.1239 226.88 53.1984 224.498 53.1984 221.818V206.185C53.1984 199.783 52.1558 194.981 50.0706 191.78C48.06 188.579 44.8578 187.016 40.4641 187.09C38.1556 187.09 35.847 187.611 33.5385 188.653C31.2299 189.696 29.2193 190.998 27.5065 192.562C27.8788 193.753 28.1395 195.056 28.2884 196.47C28.5118 197.81 28.6235 199.224 28.6235 200.713C28.549 205.031 28.5118 209.386 28.5118 213.778C28.5118 218.17 28.4746 222.562 28.4001 226.955C28.4001 228.443 28.3629 229.783 28.2884 230.975C28.2884 232.091 28.1767 233.282 27.9533 234.548C29.1448 234.473 30.2991 234.436 31.4161 234.436C32.6076 234.362 33.7991 234.287 34.9906 234.213V238.791H12.203V235.441C14.5116 235.441 16.0754 234.883 16.8946 233.766C17.7882 232.575 18.3095 230.975 18.4585 228.965C18.6819 226.88 18.7936 224.498 18.7936 221.818L18.9053 206.185C18.9797 199.783 18.0489 194.944 16.1127 191.668C14.1765 188.393 11.0115 186.792 6.61783 186.867C4.30928 186.867 2.03796 187.388 -0.196106 188.43C-2.43019 189.398 -4.32915 190.663 -5.89301 192.227C-5.89301 193.12 -5.89301 194.088 -5.89301 195.13C-5.81854 196.098 -5.78131 197.14 -5.78131 198.257V226.955C-5.78131 228.443 -5.81854 229.783 -5.89301 230.975C-5.89301 232.091 -6.00471 233.282 -6.22813 234.548C-5.03662 234.473 -3.88232 234.436 -2.76529 234.436C-1.57378 234.362 -0.382278 234.287 0.809219 234.213V238.791H-21.9784Z" fill="#122821"/>
<path d="M111.793 238.791C111.57 237.526 111.421 236.409 111.346 235.441C111.272 234.473 111.16 233.468 111.011 232.426C108.479 234.957 105.724 236.967 102.745 238.456C99.8409 239.871 96.7504 240.578 93.4737 240.578C87.8141 240.578 83.6066 239.312 80.8512 236.781C78.0958 234.176 76.7182 231.012 76.7182 227.29C76.7182 223.865 77.7607 220.925 79.8459 218.468C82.0055 215.937 84.7608 213.89 88.112 212.326C91.5375 210.689 95.2238 209.498 99.1706 208.753C103.192 207.934 107.064 207.562 110.788 207.637V200.713C110.788 198.108 110.564 195.651 110.118 193.343C109.671 191.036 108.703 189.137 107.213 187.648C105.724 186.16 103.341 185.378 100.064 185.303C97.9047 185.229 95.6706 185.638 93.362 186.532C91.128 187.425 89.4896 188.951 88.4471 191.11C89.0428 191.706 89.4152 192.413 89.5641 193.232C89.7875 193.976 89.8992 194.683 89.8992 195.353C89.8992 196.247 89.5269 197.289 88.7822 198.48C88.0375 199.597 86.7343 200.118 84.8725 200.043C83.3087 200.043 82.1172 199.522 81.298 198.48C80.4789 197.363 80.0693 196.061 80.0693 194.572C80.0693 192.041 81.0001 189.77 82.8619 187.76C84.7981 185.75 87.4417 184.15 90.7928 182.959C94.144 181.767 97.9419 181.172 102.187 181.172C108.442 181.172 113.059 182.847 116.038 186.197C119.017 189.472 120.469 194.683 120.394 201.83C120.394 204.584 120.394 207.376 120.394 210.205C120.394 212.959 120.357 215.751 120.283 218.58C120.283 221.334 120.283 224.126 120.283 226.955C120.283 228.146 120.245 229.337 120.171 230.528C120.097 231.719 119.985 233.059 119.836 234.548C121.176 234.473 122.48 234.399 123.746 234.324C125.086 234.25 126.426 234.176 127.767 234.101V238.791H111.793ZM110.788 211.433C108.256 211.508 105.575 211.843 102.745 212.438C99.9898 212.959 97.4206 213.778 95.0376 214.895C92.729 216.011 90.8301 217.5 89.3407 219.361C87.9258 221.148 87.2556 223.344 87.33 225.95C87.479 228.704 88.3726 230.788 90.0109 232.203C91.7237 233.543 93.7344 234.213 96.0429 234.213C99.0962 234.213 101.74 233.655 103.974 232.538C106.282 231.347 108.554 229.709 110.788 227.625C110.713 226.806 110.676 225.912 110.676 224.945C110.676 223.977 110.676 222.972 110.676 221.93C110.676 221.557 110.676 220.366 110.676 218.356C110.751 216.346 110.788 214.039 110.788 211.433Z" fill="#122821"/>
<path d="M135.433 235.441C137.741 235.441 139.342 234.883 140.236 233.766C141.129 232.575 141.651 230.975 141.8 228.965C141.949 226.88 142.023 224.498 142.023 221.818V196.358C142.023 195.167 142.023 193.976 142.023 192.785C142.098 191.594 142.246 190.366 142.47 189.1C141.129 189.175 139.789 189.249 138.449 189.323C137.183 189.323 135.879 189.361 134.539 189.435V184.857H138.002C141.204 184.857 143.401 184.559 144.592 183.963C145.858 183.294 146.901 182.586 147.72 181.842H150.959C151.108 183.033 151.22 184.522 151.294 186.308C151.369 188.021 151.443 190.217 151.518 192.897C152.635 191.036 154.162 189.212 156.098 187.425C158.034 185.638 160.194 184.15 162.577 182.959C165.034 181.767 167.603 181.172 170.284 181.172C172.369 181.172 174.194 181.73 175.758 182.847C177.322 183.963 178.103 185.75 178.103 188.207C178.103 188.802 177.917 189.547 177.545 190.44C177.173 191.259 176.577 192.003 175.758 192.673C174.938 193.269 173.859 193.567 172.518 193.567C170.88 193.492 169.577 192.859 168.609 191.668C167.64 190.403 167.268 188.951 167.492 187.313C165.63 187.239 163.694 187.723 161.683 188.765C159.747 189.807 157.922 191.259 156.209 193.12C154.497 194.907 152.97 197.028 151.63 199.485L151.741 226.955C151.741 228.443 151.704 229.783 151.63 230.975C151.63 232.091 151.518 233.282 151.294 234.548C152.486 234.473 153.64 234.436 154.757 234.436C155.949 234.362 157.14 234.287 158.332 234.213V238.791H135.433V235.441Z" fill="#122821"/>
<path d="M182.316 238.791V235.441C184.624 235.441 186.188 234.883 187.007 233.766C187.901 232.575 188.422 230.975 188.571 228.965C188.72 226.88 188.795 224.498 188.795 221.818L188.906 169C188.906 167.809 188.906 166.693 188.906 165.65C188.981 164.534 189.093 163.231 189.242 161.742C187.901 161.817 186.561 161.891 185.22 161.965C183.954 162.04 182.651 162.114 181.311 162.189V157.499C184.587 157.499 187.119 157.35 188.906 157.052C190.694 156.754 192.034 156.382 192.928 155.936C193.896 155.489 194.641 155.005 195.162 154.484H198.401V207.302H202.869L216.497 193.008C217.763 191.743 218.918 190.626 219.96 189.658C221.003 188.616 222.045 187.76 223.088 187.09L215.492 187.425V182.959H235.822V186.308C233.29 186.532 230.907 187.351 228.673 188.765C226.513 190.105 224.503 191.631 222.641 193.343C220.854 195.056 219.29 196.619 217.949 198.033L209.237 207.19C210.726 207.86 211.992 208.716 213.034 209.758C214.077 210.8 215.12 211.954 216.162 213.22L224.093 223.381C224.466 223.828 225.098 224.684 225.992 225.95C226.96 227.215 228.077 228.592 229.343 230.081C230.684 231.57 232.061 232.836 233.476 233.878C234.966 234.92 236.343 235.441 237.609 235.441V238.791H227.444C225.359 238.791 223.386 237.712 221.524 235.553C219.662 233.394 217.689 230.975 215.604 228.295C213.667 225.615 211.917 223.195 210.354 221.036C208.864 218.803 207.487 216.867 206.221 215.23C205.029 213.592 203.949 212.326 202.981 211.433L198.401 211.656V226.955C198.401 228.443 198.364 229.783 198.29 230.975C198.29 232.091 198.178 233.282 197.954 234.548C199.146 234.473 200.337 234.436 201.529 234.436C202.72 234.362 203.912 234.287 205.103 234.213V238.791H182.316Z" fill="#122821"/>
<path d="M277.276 238.791C277.053 237.526 276.904 236.409 276.83 235.441C276.755 234.473 276.643 233.468 276.495 232.426C273.963 234.957 271.207 236.967 268.228 238.456C265.324 239.871 262.234 240.578 258.957 240.578C253.297 240.578 249.09 239.312 246.334 236.781C243.579 234.176 242.201 231.012 242.201 227.29C242.201 223.865 243.244 220.925 245.329 218.468C247.489 215.937 250.244 213.89 253.595 212.326C257.021 210.689 260.707 209.498 264.654 208.753C268.675 207.934 272.548 207.562 276.271 207.637V200.713C276.271 198.108 276.048 195.651 275.601 193.343C275.154 191.036 274.186 189.137 272.697 187.648C271.207 186.16 268.824 185.378 265.548 185.303C263.388 185.229 261.154 185.638 258.845 186.532C256.611 187.425 254.973 188.951 253.93 191.11C254.526 191.706 254.898 192.413 255.047 193.232C255.271 193.976 255.382 194.683 255.382 195.353C255.382 196.247 255.01 197.289 254.265 198.48C253.521 199.597 252.218 200.118 250.356 200.043C248.792 200.043 247.6 199.522 246.781 198.48C245.962 197.363 245.553 196.061 245.553 194.572C245.553 192.041 246.483 189.77 248.345 187.76C250.281 185.75 252.925 184.15 256.276 182.959C259.627 181.767 263.425 181.172 267.67 181.172C273.925 181.172 278.542 182.847 281.521 186.197C284.5 189.472 285.952 194.683 285.878 201.83C285.878 204.584 285.878 207.376 285.878 210.205C285.878 212.959 285.84 215.751 285.766 218.58C285.766 221.334 285.766 224.126 285.766 226.955C285.766 228.146 285.729 229.337 285.654 230.528C285.58 231.719 285.468 233.059 285.319 234.548C286.66 234.473 287.963 234.399 289.229 234.324C290.569 234.25 291.91 234.176 293.25 234.101V238.791H277.276ZM276.271 211.433C273.739 211.508 271.058 211.843 268.228 212.438C265.473 212.959 262.904 213.778 260.521 214.895C258.212 216.011 256.313 217.5 254.824 219.361C253.409 221.148 252.739 223.344 252.813 225.95C252.962 228.704 253.856 230.788 255.494 232.203C257.207 233.543 259.218 234.213 261.526 234.213C264.579 234.213 267.223 233.655 269.457 232.538C271.766 231.347 274.037 229.709 276.271 227.625C276.197 226.806 276.159 225.912 276.159 224.945C276.159 223.977 276.159 222.972 276.159 221.93C276.159 221.557 276.159 220.366 276.159 218.356C276.234 216.346 276.271 214.039 276.271 211.433Z" fill="#122821"/>
<path d="M304.49 169C304.49 167.809 304.49 166.693 304.49 165.65C304.565 164.534 304.677 163.231 304.825 161.742C303.485 161.817 302.145 161.891 300.804 161.965C299.538 162.04 298.235 162.114 296.894 162.189V157.499C300.171 157.499 302.703 157.35 304.49 157.052C306.352 156.754 307.73 156.382 308.623 155.936C309.591 155.489 310.336 155.005 310.857 154.484H314.097V187.76C316.182 185.676 318.639 184.075 321.469 182.959C324.374 181.767 327.539 181.172 330.964 181.172C335.73 181.172 340.012 182.326 343.81 184.633C347.683 186.941 350.736 190.217 352.97 194.46C355.204 198.703 356.321 203.728 356.321 209.535C356.321 215.863 354.943 221.371 352.188 226.061C349.433 230.677 345.858 234.25 341.464 236.781C337.071 239.312 332.342 240.578 327.278 240.578C324.746 240.578 321.953 240.094 318.9 239.126C315.921 238.233 313.24 236.446 310.857 233.766L308.177 238.791H304.267L304.49 169ZM314.097 221.26C314.097 225.205 314.73 228.257 315.996 230.416C317.262 232.501 318.9 233.952 320.911 234.771C322.921 235.59 325.044 235.999 327.278 235.999C330.852 235.999 333.943 234.994 336.549 232.985C339.156 230.975 341.166 228.22 342.581 224.721C344.071 221.148 344.815 217.016 344.815 212.326C344.815 207.264 344.182 202.835 342.916 199.038C341.65 195.167 339.752 192.152 337.22 189.993C334.688 187.76 331.485 186.643 327.613 186.643C325.156 186.643 322.698 187.239 320.241 188.43C317.858 189.547 315.81 191.073 314.097 193.008V221.26Z" fill="#122821"/>
<path d="M364.814 235.441C367.122 235.441 368.724 234.883 369.617 233.766C370.511 232.575 371.032 230.975 371.181 228.965C371.33 226.88 371.404 224.498 371.404 221.818V169C371.404 167.809 371.404 166.693 371.404 165.65C371.479 164.534 371.591 163.231 371.74 161.742C370.399 161.817 369.059 161.891 367.718 161.965C366.452 162.04 365.149 162.114 363.809 162.189V157.499C367.085 157.499 369.617 157.35 371.404 157.052C373.266 156.754 374.644 156.382 375.538 155.936C376.506 155.489 377.25 155.005 377.772 154.484H381.011L381.123 226.955C381.123 228.443 381.085 229.783 381.011 230.975C380.937 232.091 380.788 233.282 380.564 234.548C381.756 234.473 382.91 234.436 384.027 234.436C385.219 234.362 386.41 234.287 387.602 234.213V238.791H364.814V235.441Z" fill="#122821"/>
<path d="M423.398 240.578C418.26 240.578 413.606 239.387 409.435 237.004C405.339 234.548 402.1 231.123 399.717 226.731C397.334 222.265 396.143 217.016 396.143 210.986C396.143 205.775 397.297 200.899 399.605 196.358C401.988 191.817 405.302 188.17 409.547 185.415C413.792 182.586 418.707 181.172 424.292 181.172C427.42 181.172 430.324 181.693 433.005 182.735C435.76 183.703 438.18 185.229 440.266 187.313C442.351 189.323 443.989 191.892 445.181 195.018C446.372 198.071 446.968 201.681 446.968 205.85L407.648 206.52C407.648 212.178 408.244 217.165 409.435 221.483C410.701 225.726 412.712 229.039 415.467 231.421C418.223 233.729 421.76 234.883 426.079 234.883C428.388 234.883 430.734 234.473 433.117 233.655C435.574 232.836 437.845 231.719 439.93 230.305C442.016 228.89 443.691 227.327 444.957 225.615L447.638 227.848C445.627 230.975 443.207 233.468 440.377 235.329C437.547 237.191 434.643 238.531 431.664 239.349C428.686 240.168 425.93 240.578 423.398 240.578ZM407.983 201.83H436.468C436.468 199.15 436.058 196.582 435.239 194.125C434.494 191.594 433.228 189.547 431.441 187.983C429.654 186.346 427.308 185.527 424.404 185.527C420.084 185.527 416.473 186.83 413.568 189.435C410.738 191.966 408.877 196.098 407.983 201.83Z" fill="#122821"/>
<path d="M-387.898 362.286V358.601C-385.069 358.452 -383.132 357.819 -382.09 356.702C-381.047 355.511 -380.489 353.911 -380.414 351.901C-380.265 349.816 -380.191 347.471 -380.191 344.866V296.627C-380.191 295.138 -380.154 293.723 -380.079 292.383C-380.005 290.969 -379.93 289.703 -379.856 288.587C-381.196 288.661 -382.537 288.736 -383.877 288.81C-385.218 288.884 -386.558 288.959 -387.898 289.033V284.12C-383.728 284.046 -379.521 283.971 -375.276 283.897C-370.957 283.822 -366.637 283.86 -362.318 284.008C-355.095 284.083 -349.286 284.939 -344.892 286.577C-340.424 288.14 -337.148 290.411 -335.062 293.388C-332.977 296.292 -331.935 299.828 -331.935 303.997C-331.86 306.9 -332.419 309.878 -333.61 312.93C-334.727 315.907 -336.813 318.587 -339.866 320.97C-342.845 323.352 -347.164 325.138 -352.823 326.33C-351.334 327.372 -350.031 328.712 -348.914 330.349C-347.797 331.987 -346.531 333.886 -345.116 336.044L-337.52 347.993C-336.254 350.003 -335.025 351.826 -333.834 353.464C-332.642 355.027 -331.265 356.293 -329.701 357.261C-328.137 358.154 -326.201 358.601 -323.892 358.601V362.286H-337.967C-340.126 360.35 -341.951 358.415 -343.44 356.479C-344.855 354.544 -346.345 352.348 -347.908 349.891L-355.393 337.943C-356.361 336.379 -357.478 334.593 -358.744 332.583C-359.935 330.498 -361.313 328.749 -362.877 327.335C-364.068 327.409 -365.334 327.446 -366.675 327.446C-367.941 327.446 -369.207 327.409 -370.473 327.335V348.998C-370.473 351.008 -370.51 352.757 -370.584 354.246C-370.584 355.66 -370.659 356.851 -370.808 357.819C-369.914 357.745 -369.02 357.707 -368.127 357.707C-367.233 357.633 -366.34 357.559 -365.446 357.484C-364.552 357.41 -363.659 357.372 -362.765 357.372V362.286H-387.898ZM-363.547 323.203C-359.451 323.054 -355.877 322.384 -352.823 321.193C-349.696 320.002 -347.238 318.104 -345.451 315.498C-343.664 312.892 -342.77 309.468 -342.77 305.225C-342.77 302.396 -343.18 299.939 -343.999 297.855C-344.743 295.696 -345.935 293.909 -347.573 292.495C-349.212 291.081 -351.297 290.038 -353.829 289.368C-356.361 288.624 -359.339 288.252 -362.765 288.252C-365.52 288.252 -367.457 288.81 -368.574 289.927C-369.616 291.043 -370.212 292.607 -370.361 294.617C-370.435 296.552 -370.473 298.86 -370.473 301.54V322.98C-369.281 323.054 -368.164 323.128 -367.122 323.203C-366.004 323.277 -364.813 323.277 -363.547 323.203Z" fill="#122821"/>
<path d="M-292.716 364.072C-297.855 364.072 -302.509 362.881 -306.679 360.499C-310.775 358.042 -314.014 354.618 -316.397 350.226C-318.78 345.759 -319.972 340.511 -319.972 334.481C-319.972 329.27 -318.818 324.394 -316.509 319.853C-314.126 315.312 -310.812 311.664 -306.568 308.91C-302.323 306.081 -297.408 304.666 -291.823 304.666C-288.695 304.666 -285.791 305.188 -283.11 306.23C-280.354 307.198 -277.934 308.724 -275.849 310.808C-273.764 312.818 -272.125 315.386 -270.934 318.513C-269.742 321.565 -269.147 325.176 -269.147 329.345L-308.466 330.014C-308.466 335.672 -307.871 340.66 -306.679 344.978C-305.413 349.221 -303.403 352.534 -300.647 354.916C-297.892 357.224 -294.355 358.377 -290.035 358.377C-287.727 358.377 -285.381 357.968 -282.998 357.149C-280.54 356.33 -278.269 355.214 -276.184 353.799C-274.099 352.385 -272.423 350.821 -271.157 349.109L-268.476 351.343C-270.487 354.469 -272.907 356.963 -275.737 358.824C-278.567 360.685 -281.471 362.025 -284.45 362.844C-287.429 363.663 -290.184 364.072 -292.716 364.072ZM-308.131 325.325H-279.647C-279.647 322.645 -280.056 320.076 -280.876 317.62C-281.62 315.089 -282.886 313.041 -284.674 311.478C-286.461 309.84 -288.807 309.021 -291.711 309.021C-296.03 309.021 -299.642 310.324 -302.546 312.93C-305.376 315.461 -307.238 319.592 -308.131 325.325Z" fill="#122821"/>
<path d="M-259.206 362.286V358.936C-256.897 358.936 -255.296 358.377 -254.403 357.261C-253.509 356.07 -252.988 354.469 -252.839 352.459C-252.69 350.375 -252.615 347.993 -252.615 345.313V319.853C-252.615 318.662 -252.615 317.471 -252.615 316.28C-252.541 315.089 -252.392 313.86 -252.169 312.595C-253.509 312.669 -254.849 312.744 -256.19 312.818C-257.456 312.892 -258.759 312.967 -260.1 313.041V308.351C-256.823 308.351 -254.365 308.203 -252.727 307.905C-251.014 307.607 -249.748 307.235 -248.929 306.788C-248.11 306.341 -247.44 305.858 -246.918 305.336H-243.679C-243.53 306.081 -243.456 306.937 -243.456 307.905C-243.381 308.873 -243.307 309.989 -243.232 311.255C-240.998 309.319 -238.429 307.756 -235.525 306.565C-232.62 305.299 -229.716 304.666 -226.812 304.666C-223.088 304.666 -219.961 305.336 -217.429 306.676C-214.897 308.016 -212.923 309.84 -211.508 312.148C-208.976 310.064 -206.072 308.314 -202.795 306.9C-199.444 305.411 -196.168 304.666 -192.965 304.666C-186.487 304.666 -181.721 306.639 -178.667 310.585C-175.614 314.456 -174.162 320.821 -174.311 329.679L-174.423 350.449C-174.423 351.938 -174.46 353.278 -174.534 354.469C-174.534 355.586 -174.646 356.777 -174.869 358.042C-173.678 357.968 -172.524 357.931 -171.407 357.931C-170.215 357.856 -169.024 357.782 -167.832 357.707V362.286H-190.62V358.936C-188.311 358.936 -186.71 358.377 -185.816 357.261C-184.923 356.07 -184.402 354.469 -184.253 352.459C-184.104 350.375 -184.029 347.993 -184.029 345.313V329.679C-184.029 323.277 -185.072 318.476 -187.157 315.275C-189.168 312.074 -192.37 310.51 -196.763 310.585C-199.072 310.585 -201.381 311.106 -203.689 312.148C-205.998 313.19 -208.008 314.493 -209.721 316.056C-209.349 317.247 -209.088 318.55 -208.939 319.965C-208.716 321.305 -208.604 322.719 -208.604 324.208C-208.678 328.526 -208.716 332.881 -208.716 337.273C-208.716 341.665 -208.753 346.057 -208.827 350.449C-208.827 351.938 -208.865 353.278 -208.939 354.469C-208.939 355.586 -209.051 356.777 -209.274 358.042C-208.083 357.968 -206.928 357.931 -205.811 357.931C-204.62 357.856 -203.428 357.782 -202.237 357.707V362.286H-225.025V358.936C-222.716 358.936 -221.152 358.377 -220.333 357.261C-219.439 356.07 -218.918 354.469 -218.769 352.459C-218.546 350.375 -218.434 347.993 -218.434 345.313L-218.322 329.679C-218.248 323.277 -219.179 318.439 -221.115 315.163C-223.051 311.888 -226.216 310.287 -230.61 310.361C-232.918 310.361 -235.19 310.883 -237.424 311.925C-239.658 312.892 -241.557 314.158 -243.121 315.721C-243.121 316.615 -243.121 317.582 -243.121 318.625C-243.046 319.592 -243.009 320.635 -243.009 321.751V350.449C-243.009 351.938 -243.046 353.278 -243.121 354.469C-243.121 355.586 -243.232 356.777 -243.456 358.042C-242.264 357.968 -241.11 357.931 -239.993 357.931C-238.801 357.856 -237.61 357.782 -236.418 357.707V362.286H-259.206Z" fill="#122821"/>
<path d="M-125.434 362.286C-125.658 361.02 -125.807 359.904 -125.881 358.936C-125.956 357.968 -126.067 356.963 -126.216 355.921C-128.748 358.452 -131.504 360.462 -134.482 361.951C-137.387 363.365 -140.477 364.072 -143.754 364.072C-149.413 364.072 -153.621 362.807 -156.376 360.276C-159.132 357.67 -160.509 354.506 -160.509 350.784C-160.509 347.36 -159.467 344.419 -157.382 341.963C-155.222 339.432 -152.467 337.384 -149.116 335.821C-145.69 334.183 -142.004 332.992 -138.057 332.248C-134.036 331.429 -130.163 331.057 -126.44 331.131V324.208C-126.44 321.602 -126.663 319.146 -127.11 316.838C-127.557 314.53 -128.525 312.632 -130.014 311.143C-131.504 309.654 -133.887 308.873 -137.163 308.798C-139.323 308.724 -141.557 309.133 -143.865 310.026C-146.1 310.92 -147.738 312.446 -148.78 314.605C-148.185 315.2 -147.812 315.907 -147.663 316.726C-147.44 317.471 -147.328 318.178 -147.328 318.848C-147.328 319.741 -147.701 320.783 -148.445 321.975C-149.19 323.091 -150.493 323.612 -152.355 323.538C-153.919 323.538 -155.11 323.017 -155.93 321.975C-156.749 320.858 -157.158 319.555 -157.158 318.066C-157.158 315.535 -156.227 313.265 -154.366 311.255C-152.429 309.245 -149.786 307.644 -146.435 306.453C-143.084 305.262 -139.286 304.666 -135.041 304.666C-128.785 304.666 -124.168 306.341 -121.19 309.691C-118.211 312.967 -116.759 318.178 -116.833 325.325C-116.833 328.079 -116.833 330.871 -116.833 333.699C-116.833 336.454 -116.87 339.245 -116.945 342.074C-116.945 344.829 -116.945 347.62 -116.945 350.449C-116.945 351.64 -116.982 352.831 -117.057 354.023C-117.131 355.214 -117.243 356.554 -117.392 358.042C-116.051 357.968 -114.748 357.894 -113.482 357.819C-112.142 357.745 -110.801 357.67 -109.461 357.596V362.286H-125.434ZM-126.44 334.928C-128.972 335.002 -131.653 335.337 -134.482 335.933C-137.238 336.454 -139.807 337.273 -142.19 338.389C-144.498 339.506 -146.397 340.995 -147.887 342.856C-149.302 344.643 -149.972 346.839 -149.898 349.444C-149.749 352.199 -148.855 354.283 -147.217 355.697C-145.504 357.037 -143.493 357.707 -141.185 357.707C-138.131 357.707 -135.488 357.149 -133.254 356.032C-130.945 354.841 -128.674 353.204 -126.44 351.119C-126.514 350.3 -126.551 349.407 -126.551 348.439C-126.551 347.471 -126.551 346.466 -126.551 345.424C-126.551 345.052 -126.551 343.861 -126.551 341.851C-126.477 339.841 -126.44 337.533 -126.44 334.928Z" fill="#122821"/>
<path d="M-101.795 358.936C-99.4865 358.936 -97.8854 358.377 -96.9917 357.261C-96.0981 356.07 -95.5768 354.469 -95.4279 352.459C-95.2789 350.375 -95.2045 347.993 -95.2045 345.313V319.853C-95.2045 318.662 -95.2045 317.471 -95.2045 316.28C-95.13 315.089 -94.9811 313.86 -94.7577 312.595C-96.0981 312.669 -97.4386 312.744 -98.779 312.818C-100.045 312.818 -101.348 312.855 -102.689 312.93V308.351H-99.2258C-96.0236 308.351 -93.8268 308.054 -92.6353 307.458C-91.3693 306.788 -90.3267 306.081 -89.5076 305.336H-86.2682C-86.1192 306.528 -86.0075 308.016 -85.9331 309.803C-85.8586 311.515 -85.7841 313.711 -85.7096 316.391C-84.5926 314.53 -83.066 312.706 -81.1298 310.92C-79.1936 309.133 -77.034 307.644 -74.651 306.453C-72.1935 305.262 -69.6243 304.666 -66.9434 304.666C-64.8583 304.666 -63.0337 305.225 -61.4699 306.341C-59.906 307.458 -59.1241 309.245 -59.1241 311.701C-59.1241 312.297 -59.3103 313.041 -59.6826 313.935C-60.055 314.754 -60.6507 315.498 -61.4699 316.168C-62.289 316.764 -63.3688 317.061 -64.7093 317.061C-66.3476 316.987 -67.6509 316.354 -68.619 315.163C-69.5871 313.897 -69.9594 312.446 -69.736 310.808C-71.5977 310.734 -73.5339 311.218 -75.5446 312.26C-77.4808 313.302 -79.3053 314.754 -81.0181 316.615C-82.7309 318.401 -84.2575 320.523 -85.5979 322.98L-85.4862 350.449C-85.4862 351.938 -85.5235 353.278 -85.5979 354.469C-85.5979 355.586 -85.7097 356.777 -85.9331 358.042C-84.7416 357.968 -83.5873 357.931 -82.4702 357.931C-81.2787 357.856 -80.0872 357.782 -78.8957 357.707V362.286H-101.795V358.936Z" fill="#122821"/>
<path d="M-54.9117 362.286V358.936C-52.6031 358.936 -51.0393 358.377 -50.2201 357.261C-49.3265 356.07 -48.8052 354.469 -48.6562 352.459C-48.5073 350.375 -48.4328 347.993 -48.4328 345.313L-48.3211 292.495C-48.3211 291.304 -48.3211 290.187 -48.3211 289.145C-48.2467 288.028 -48.1349 286.726 -47.986 285.237C-49.3264 285.311 -50.6669 285.386 -52.0074 285.46C-53.2733 285.535 -54.5765 285.609 -55.917 285.683V280.993C-52.6403 280.993 -50.1084 280.845 -48.3211 280.547C-46.5339 280.249 -45.1934 279.877 -44.2998 279.43C-43.3317 278.984 -42.587 278.5 -42.0657 277.979H-38.8263V330.796H-34.3581L-20.7303 316.503C-19.4643 315.237 -18.31 314.121 -17.2674 313.153C-16.2249 312.111 -15.1823 311.255 -14.1397 310.585L-21.7356 310.92V306.453H-1.40548V309.803C-3.93743 310.026 -6.32043 310.845 -8.55451 312.26C-10.7141 313.6 -12.7248 315.126 -14.5865 316.838C-16.3738 318.55 -17.9376 320.114 -19.2781 321.528L-27.991 330.684C-26.5016 331.354 -25.2356 332.211 -24.1931 333.253C-23.1505 334.295 -22.1079 335.449 -21.0654 336.714L-13.1344 346.876C-12.762 347.323 -12.1291 348.179 -11.2354 349.444C-10.2673 350.71 -9.15028 352.087 -7.8843 353.576C-6.54385 355.065 -5.16616 356.33 -3.75125 357.372C-2.26186 358.415 -0.884181 358.936 0.381799 358.936V362.286H-9.78325C-11.8684 362.286 -13.8418 361.206 -15.7036 359.047C-17.5653 356.889 -19.5388 354.469 -21.6239 351.789C-23.5601 349.109 -25.3101 346.69 -26.874 344.531C-28.3634 342.298 -29.741 340.362 -31.007 338.724C-32.1985 337.087 -33.2783 335.821 -34.2464 334.928L-38.8263 335.151V350.449C-38.8263 351.938 -38.8635 353.278 -38.938 354.469C-38.938 355.586 -39.0497 356.777 -39.2731 358.042C-38.0816 357.968 -36.8901 357.931 -35.6986 357.931C-34.5071 357.856 -33.3156 357.782 -32.124 357.707V362.286H-54.9117Z" fill="#122821"/>
<path d="M40.0489 362.286C39.8255 361.02 39.6765 359.904 39.6021 358.936C39.5276 357.968 39.4159 356.963 39.267 355.921C36.735 358.452 33.9796 360.462 31.0009 361.951C28.0966 363.365 25.0061 364.072 21.7295 364.072C16.0698 364.072 11.8623 362.807 9.10693 360.276C6.35156 357.67 4.97388 354.506 4.97388 350.784C4.97388 347.36 6.01644 344.419 8.10158 341.963C10.2612 339.432 13.0166 337.384 16.3677 335.821C19.7933 334.183 23.4795 332.992 27.4264 332.248C31.4477 331.429 35.3201 331.057 39.0436 331.131V324.208C39.0436 321.602 38.8201 319.146 38.3733 316.838C37.9265 314.53 36.9584 312.632 35.4691 311.143C33.9797 309.654 31.5966 308.873 28.32 308.798C26.1604 308.724 23.9263 309.133 21.6177 310.026C19.3837 310.92 17.7453 312.446 16.7028 314.605C17.2985 315.2 17.6709 315.907 17.8198 316.726C18.0432 317.471 18.1549 318.178 18.1549 318.848C18.1549 319.741 17.7826 320.783 17.0379 321.975C16.2932 323.091 14.99 323.612 13.1283 323.538C11.5644 323.538 10.3729 323.017 9.55375 321.975C8.73458 320.858 8.325 319.555 8.325 318.066C8.325 315.535 9.25586 313.265 11.1176 311.255C13.0538 309.245 15.6975 307.644 19.0486 306.453C22.3997 305.262 26.1976 304.666 30.4424 304.666C36.6978 304.666 41.3149 306.341 44.2937 309.691C47.2724 312.967 48.7246 318.178 48.6501 325.325C48.6501 328.079 48.6501 330.871 48.6501 333.699C48.6501 336.454 48.6129 339.245 48.5384 342.074C48.5384 344.829 48.5384 347.62 48.5384 350.449C48.5384 351.64 48.5012 352.831 48.4267 354.023C48.3522 355.214 48.2405 356.554 48.0916 358.042C49.432 357.968 50.7352 357.894 52.0012 357.819C53.3417 357.745 54.6821 357.67 56.0226 357.596V362.286H40.0489ZM39.0436 334.928C36.5116 335.002 33.8307 335.337 31.0009 335.933C28.2455 336.454 25.6763 337.273 23.2933 338.389C20.9848 339.506 19.0858 340.995 17.5964 342.856C16.1815 344.643 15.5113 346.839 15.5857 349.444C15.7347 352.199 16.6283 354.283 18.2666 355.697C19.9794 357.037 21.9901 357.707 24.2987 357.707C27.3519 357.707 29.9955 357.149 32.2296 356.032C34.5382 354.841 36.8095 353.204 39.0436 351.119C38.9691 350.3 38.9319 349.407 38.9319 348.439C38.9319 347.471 38.9319 346.466 38.9319 345.424C38.9319 345.052 38.9319 343.861 38.9319 341.851C39.0063 339.841 39.0436 337.533 39.0436 334.928Z" fill="#122821"/>
<path d="M67.2628 292.495C67.2628 291.304 67.2628 290.187 67.2628 289.145C67.3372 288.028 67.449 286.726 67.5979 285.237C66.2575 285.311 64.917 285.386 63.5765 285.46C62.3106 285.535 61.0074 285.609 59.6669 285.683V280.993C62.9436 280.993 65.4755 280.845 67.2628 280.547C69.1245 280.249 70.5022 279.877 71.3958 279.43C72.3639 278.984 73.1086 278.5 73.6299 277.979H76.8693V311.255C78.9545 309.17 81.4119 307.57 84.2418 306.453C87.1461 305.262 90.311 304.666 93.7366 304.666C98.5026 304.666 102.785 305.82 106.583 308.128C110.455 310.436 113.508 313.711 115.742 317.955C117.976 322.198 119.093 327.223 119.093 333.029C119.093 339.357 117.716 344.866 114.96 349.556C112.205 354.171 108.63 357.745 104.237 360.276C99.8431 362.807 95.1143 364.072 90.0504 364.072C87.5184 364.072 84.7258 363.588 81.6726 362.621C78.6938 361.727 76.0129 359.941 73.6299 357.261L70.949 362.286H67.0394L67.2628 292.495ZM76.8693 344.754C76.8693 348.7 77.5023 351.752 78.7683 353.911C80.0342 355.995 81.6726 357.447 83.6832 358.266C85.6939 359.085 87.8163 359.494 90.0504 359.494C93.6249 359.494 96.7154 358.489 99.3218 356.479C101.928 354.469 103.939 351.715 105.354 348.216C106.843 344.643 107.588 340.511 107.588 335.821C107.588 330.759 106.955 326.33 105.689 322.533C104.423 318.662 102.524 315.647 99.992 313.488C97.4601 311.255 94.2579 310.138 90.3855 310.138C87.928 310.138 85.4705 310.734 83.013 311.925C80.63 313.041 78.5821 314.567 76.8693 316.503V344.754Z" fill="#122821"/>
<path d="M127.586 358.936C129.895 358.936 131.496 358.377 132.39 357.261C133.283 356.07 133.805 354.469 133.953 352.459C134.102 350.375 134.177 347.993 134.177 345.313V292.495C134.177 291.304 134.177 290.187 134.177 289.145C134.251 288.028 134.363 286.726 134.512 285.237C133.172 285.311 131.831 285.386 130.491 285.46C129.225 285.535 127.921 285.609 126.581 285.683V280.993C129.858 280.993 132.39 280.845 134.177 280.547C136.039 280.249 137.416 279.877 138.31 279.43C139.278 278.984 140.023 278.5 140.544 277.979H143.783L143.895 350.449C143.895 351.938 143.858 353.278 143.783 354.469C143.709 355.586 143.56 356.777 143.337 358.042C144.528 357.968 145.682 357.931 146.799 357.931C147.991 357.856 149.182 357.782 150.374 357.707V362.286H127.586V358.936Z" fill="#122821"/>
<path d="M186.171 364.072C181.032 364.072 176.378 362.881 172.208 360.499C168.112 358.042 164.873 354.618 162.49 350.226C160.106 345.759 158.915 340.511 158.915 334.481C158.915 329.27 160.069 324.394 162.378 319.853C164.761 315.312 168.075 311.664 172.319 308.91C176.564 306.081 181.479 304.666 187.064 304.666C190.192 304.666 193.096 305.188 195.777 306.23C198.533 307.198 200.953 308.724 203.038 310.808C205.123 312.818 206.761 315.386 207.953 318.513C209.144 321.565 209.74 325.176 209.74 329.345L170.42 330.014C170.42 335.672 171.016 340.66 172.208 344.978C173.474 349.221 175.484 352.534 178.24 354.916C180.995 357.224 184.532 358.377 188.852 358.377C191.16 358.377 193.506 357.968 195.889 357.149C198.346 356.33 200.618 355.214 202.703 353.799C204.788 352.385 206.464 350.821 207.73 349.109L210.41 351.343C208.4 354.469 205.98 356.963 203.15 358.824C200.32 360.685 197.416 362.025 194.437 362.844C191.458 363.663 188.703 364.072 186.171 364.072ZM170.756 325.325H199.24C199.24 322.645 198.83 320.076 198.011 317.62C197.267 315.089 196.001 313.041 194.213 311.478C192.426 309.84 190.08 309.021 187.176 309.021C182.857 309.021 179.245 310.324 176.341 312.93C173.511 315.461 171.649 319.592 170.756 325.325Z" fill="#122821"/>
</g>
</svg>
