<?xml version="1.0" encoding="UTF-8" standalone="no"?><svg width="46" height="46" viewBox="0 0 46 46" fill="none" xmlns="http://www.w3.org/2000/svg">
<path d="M44.1009 13.893C43.238 11.9194 42.096 10.0801 40.7097 8.43158C38.6605 5.92194 36.1032 3.87484 33.2061 2.42504C30.309 0.975255 27.1377 0.155619 23.9011 0.0200841C20.6645 -0.115451 17.4359 0.436186 14.4278 1.63871C11.4197 2.84123 8.70029 4.66736 6.44857 6.9969C4.19684 9.32644 2.46384 12.1066 1.36365 15.1544C0.263453 18.2021 -0.179016 21.4484 0.0653886 24.6795C0.30981 27.9107 1.23553 31.0534 2.78165 33.9008C4.32777 36.7483 6.45924 39.236 9.03575 41.2001C10.689 42.4855 12.5157 43.5305 14.4617 44.3039C17.1899 45.4223 20.1099 45.9983 23.0584 46C29.1446 45.9866 34.9772 43.5598 39.2777 39.2518C43.5781 34.9437 45.9956 29.1059 46 23.018C46.0044 19.8776 45.3578 16.7706 44.1009 13.893ZM23.0414 4.6832C25.6893 4.68293 28.3051 5.2618 30.7056 6.37929C30.1203 6.6323 29.5048 6.80901 28.8743 6.9051C26.7999 7.20546 24.8783 8.1688 23.3962 9.65136C21.914 11.1339 20.9509 13.0561 20.6506 15.1311C20.5189 16.2948 19.9897 17.3774 19.1526 18.1963C18.3155 19.0152 17.2216 19.5199 16.0555 19.6258C13.9811 19.9262 12.0595 20.8895 10.5773 22.3721C9.09523 23.8546 8.13214 25.7768 7.83187 27.8518C7.7302 28.9584 7.25822 29.9982 6.49234 30.803C5.17086 28.0101 4.57723 24.9279 4.76666 21.8438C4.9561 18.7596 5.92244 15.7734 7.57578 13.1632C9.2291 10.553 11.5157 8.40361 14.2228 6.915C16.9298 5.42639 19.9693 4.64699 23.0584 4.64928L23.0414 4.6832ZM9.01879 34.8906C9.22226 34.704 9.42574 34.5344 9.62921 34.3309C11.1377 32.868 12.106 30.9368 12.3761 28.8525C12.4856 27.6809 13.0085 26.5865 13.8513 25.7656C14.6623 24.9213 15.7537 24.4025 16.9203 24.307C18.9947 24.0066 20.9163 23.0432 22.3985 21.5607C23.8806 20.0781 24.8437 18.1559 25.144 16.0809C25.2174 14.8555 25.7431 13.701 26.6192 12.8414C27.4502 12.0135 28.552 11.5135 29.7221 11.4336C31.6278 11.1714 33.4052 10.3239 34.809 9.00825C36.4074 10.3347 37.7615 11.9304 38.8106 13.7234C38.7462 13.8104 38.6722 13.8901 38.5902 13.9608C37.7809 14.8126 36.6908 15.3428 35.5211 15.4534C33.4445 15.7485 31.52 16.7102 30.0368 18.1936C28.5539 19.6772 27.5925 21.6022 27.2974 23.6794C27.1779 24.847 26.6585 25.9374 25.8273 26.7658C24.996 27.5944 23.904 28.1098 22.7362 28.225C20.6557 28.523 18.727 29.4845 17.2362 30.9664C15.7456 32.4484 14.7725 34.3718 14.4617 36.451C14.3705 37.2799 14.0858 38.0759 13.6308 38.7747C11.8911 37.7414 10.333 36.4293 9.01879 34.8906ZM23.0414 41.4375C21.3209 41.4394 19.6085 41.1996 17.9546 40.7252C18.5205 39.6702 18.8882 38.5204 19.0398 37.333C19.1587 36.1679 19.6757 35.0795 20.5035 34.2515C21.3313 33.4235 22.4193 32.9063 23.584 32.7874C25.6615 32.4905 27.587 31.5286 29.0726 30.0457C30.5579 28.563 31.5236 26.6388 31.8247 24.5614C31.9436 23.3964 32.4606 22.308 33.2883 21.4799C34.1161 20.6519 35.2042 20.1348 36.3689 20.0159C37.9323 19.8125 39.4224 19.2303 40.7097 18.3198C41.4245 21.03 41.5092 23.8679 40.9572 26.6159C40.4053 29.3639 39.2313 31.9491 37.5255 34.1728C35.8197 36.3964 33.6275 38.1998 31.1166 39.4444C28.6059 40.689 25.8436 41.3419 23.0414 41.3527V41.4375Z" fill="#122821"/>
</svg>
